<svg xmlns="http://www.w3.org/2000/svg" width="18.049" height="18.049" viewBox="0 0 18.05 18.05"><defs><style>.a{fill:#e83c30}</style><clipPath id="a"><path class="a" d="M9.02 0A9.02 9.02 0 1 1 0 9.02 9.02 9.02 0 0 1 9.02 0z" transform="translate(177 89)"/></clipPath></defs><g transform="translate(-177 -89)" clip-path="url(#a)"><g transform="translate(177 89)"><path class="a" d="M3.74 5.5a.35.35 0 0 0 0 .7h6.34a.35.35 0 0 0 0-.7zM7.61 7.97a.35.35 0 0 0 .35.35h6.34a.35.35 0 0 0 0-.7H7.97a.35.35 0 0 0-.35.35zM11.14 9.73h-7.4a.35.35 0 0 0 0 .7h7.4a.35.35 0 1 0 0-.7zM12.2 6.2h2.11a.35.35 0 0 0 0-.7H12.2a.35.35 0 0 0 0 .7zM3.74 8.32h2.1a.35.35 0 0 0 0-.7h-2.1a.35.35 0 0 0 0 .7z"/><circle class="a" cx=".353" cy=".353" r=".353" transform="translate(8.672 3.173)"/><path class="a" d="M17 1.06h-1.32a1.41 1.41 0 0 0-2.73 0H5.1a1.41 1.41 0 0 0-2.73 0H1.06A1.06 1.06 0 0 0 0 2.12v.7a1.06 1.06 0 0 0 1.06 1.06h.21v10.64a.35.35 0 0 0 .35.35h7.05v2.47h-.7a.35.35 0 0 0 0 .7h2.12a.35.35 0 1 0 0-.7h-.71v-2.46h7.05a.35.35 0 0 0 .35-.35V3.88h.21a1.06 1.06 0 0 0 1.06-1.06v-.7A1.06 1.06 0 0 0 17 1.06zm.34 1.76a.35.35 0 0 1-.35.35h-6.38a.35.35 0 1 0 0 .7h5.46v10.3H1.97V3.88h5.47a.35.35 0 0 0 0-.7H1.06a.35.35 0 0 1-.36-.36v-.7a.35.35 0 0 1 .35-.35h1.63a.35.35 0 0 0 .35-.35.7.7 0 0 1 1.41 0 .35.35 0 0 0 .35.35h8.46a.35.35 0 0 0 .35-.35.7.7 0 0 1 1.41 0 .35.35 0 0 0 .35.35h1.62a.35.35 0 0 1 .35.35z"/></g></g></svg>